<?xml version="1.0" encoding="utf-8"?>
<!-- Generator: Adobe Illustrator 22.0.1, SVG Export Plug-In . SVG Version: 6.00 Build 0)  -->
<svg version="1.1" id="Layer_1" xmlns="http://www.w3.org/2000/svg" xmlns:xlink="http://www.w3.org/1999/xlink" x="0px" y="0px"
	 viewBox="0 0 958.6 939.6" style="enable-background:new 0 0 958.6 939.6;" xml:space="preserve">
<style type="text/css">
	.st0{fill:#A0A0A0;}
</style>
<path class="st0" d="M633.4,939.6c-33-19.6-66-39.3-99-58.9c-17.7-10.6-35.5-21.1-53.2-31.7l-1.8-1.1l-1.8,1.1
	C457.3,861,437,873,416.7,885c-30.1,17.9-61.2,36.3-91.8,54.5c-31.7-18.9-64.1-37.9-95.4-56.3c-24.6-14.5-50.1-29.4-75.1-44.2
	c0-30.8-0.1-61.6-0.1-92.4c0-29.3,0-58.6-0.1-87.9l0-2l-1.7-1c-39.1-23.2-78.8-46.8-117.2-69.6L2.3,566.5
	c-0.4-18.6-0.6-37.5-0.7-55.8c-0.1-16.7-0.3-33.9-0.6-50.8c-0.1-5-0.1-10.1-0.1-15c0-3.6,0-7.3,0-10.9c-0.3-10.9-0.4-21.8-0.5-32.5
	c-0.1-9.3-0.1-18.8-0.3-28.2c20.9-12.6,41.8-25.2,62.8-37.8c29.7-17.9,60.4-36.3,90.5-54.6l1.6-1l0-1.9c0.3-10.9,0.3-22.1,0.4-32.8
	c0-6.9,0.1-14.1,0.2-21.1c0.3-9.8,0.3-19.9,0.4-29.6c0-10.6,0.1-21.6,0.4-32.4l0-0.1c-0.1-12.5,0.1-25.1,0.3-37.4
	c0.1-8.6,0.3-17.5,0.3-26.3c15.8-9.3,31.5-18.6,47.3-27.9c39.1-23,79.4-46.8,119.1-70.4c7.2,4.9,32.4,20.2,122.1,73.7
	c11.9,7.1,23,13.7,32.1,19.2l1.8,1.1l1.8-1.1c9.2-5.5,20.3-12.1,32.3-19.3C602.9,20.2,628.2,4.9,635.4,0c41.6,24.7,84,49.7,125,73.9
	c13.8,8.1,27.6,16.3,41.4,24.4c0,7.8,0.1,15.6,0.3,23.2c0.1,6.4,0.2,13,0.3,19.5c0,10.8,0.1,21.8,0.3,32.4
	c0.2,11.7,0.4,23.7,0.3,35.6l0,0.1c0.3,11.8,0.4,23.9,0.5,35.6c0.1,10.9,0.1,22.2,0.4,33.3l0,1.9l1.6,1
	c33.4,20.2,67.3,40.6,100.2,60.4c17.7,10.6,35.4,21.3,53.1,32c-0.2,9.5-0.3,19.2-0.3,28.5c0,7.3-0.1,14.8-0.2,22.2
	c-0.3,8-0.3,16.2-0.3,24.1c0,6.9,0,13.9-0.2,20.9c-0.3,7.8-0.3,15.7-0.3,23.4c0,6.4,0,13-0.2,19.5c-0.3,8.7-0.3,17.6-0.3,26.2
	c0,9.3-0.1,18.9-0.4,28.3c-47.5,28.2-98.5,58.5-150.4,89.3l-1.7,1l0,2c0,25.9,0,51.8-0.1,77.7c0,34.2,0,68.4-0.1,102.6
	c-31.1,18.4-62.7,37-93.3,55c-25,14.7-50.8,29.9-76.2,44.9c-0.2,0.1-0.3,0.2-0.5,0.3C633.9,939.3,633.6,939.5,633.4,939.6z
	 M177.8,677.2c-0.5,25-0.8,50.3-1.2,74.9c-0.4,24.5-0.7,49.8-1.2,74.7l0,2l1.8,1c43.1,25.6,86.3,51.2,129.4,76.7l5.2,3.1l0.1-6.1
	c0.3-23.2,0.5-46.7,0.7-69.5c0.3-27,0.5-54.9,0.9-82.3l0-1.9l-1.6-1.1c-3-1.9-6-3.7-9-5.4c-1.7-1-3.4-2-5.1-3
	c-13.3-7.7-26.6-15.4-39.9-23.1C232.9,703,208,688.6,183,674.2l-5.1-3L177.8,677.2z M775.6,674.2c-14.5,8.4-28.9,16.7-43.4,25.1
	c-28,16.1-56.9,32.8-85.3,49.5l-1.8,1l0,2c0.4,27.6,0.6,55.7,0.9,82.9c0.2,22.6,0.4,46,0.7,68.9l0.1,6.1l5.2-3.1
	c38.3-22.7,83.7-49.6,129.4-76.7l1.8-1l0-2c-0.5-25.5-0.9-51.4-1.2-76.4c-0.3-24-0.7-48.8-1.2-73.2l-0.1-5.9L775.6,674.2z
	 M421.8,695.5c-28.4,16.5-57.7,33.6-86.5,50.4l-1.7,1l0,2c0.2,24.6,0.2,49.6,0.2,73.8l0,12.3c0.3,22,0.4,43.7,0.5,67.7l0,6.1l5.2-3
	c23.6-13.7,47.2-27.4,70.7-41.2c23-13.4,46-26.8,69-40.2c22,12.8,44,25.6,66,38.4c24.6,14.3,49.1,28.6,73.7,42.9l5.2,3l0-6
	c0-5.1,0-10.3,0.1-15.4c0-9.3,0.1-18.8,0.2-28.2c0.3-20,0.3-40.3,0.3-60c0-16.4,0-33.4,0.2-50.1l0-2l-1.8-1
	c-30.7-17.9-61.4-35.8-92.1-53.7c-16.7-9.7-51.9-30.3-51.9-30.3S440.4,684.7,421.8,695.5z M308.7,397.4c-1.8,1-3.6,2-5.5,3.1
	c-7.2,4-14.6,8.1-21.8,12.5l-38.5,23.2c-20.7,12.4-41.3,24.8-62,37.3l-1.7,1l0,2c0,8.5,0,16.9-0.1,25.4l0,7.3
	c-0.3,27.5-0.4,55.5-0.4,82.6c0,18.1-0.1,36.7-0.2,55.1l0,2.1l1.8,1c20.1,11.1,40.2,22.2,60.4,33.3c27.4,15.1,55.8,30.8,83.7,46.1
	l1.8,1l1.7-1c21.2-12.7,42.5-25.3,63.8-38c18.9-11.3,70.5-40.1,70.5-40.1l-6.4-3.7c-22.3-13-45-26.4-67-39.2
	c-25.4-14.9-51.6-30.3-77.4-45.3c0.3-27.4,0.8-55.1,1.3-82c0.5-26.3,0.9-53.5,1.2-80.2l0.1-6.1L308.7,397.4z M558.2,686
	c23.8,14.1,48.3,28.8,72.5,43.2l1.7,1l1.8-1c29-15.9,58.5-32.2,87-47.9c19-10.5,38-21,57.1-31.5l1.8-1l0-2.1c0-6,0-11.9-0.1-17.9
	c0-9.3-0.1-18.6-0.1-27.8c0.1-22.8-0.1-45.9-0.2-68.3c-0.1-18.5-0.3-37.6-0.3-56.3v-2l-1.7-1c-17.7-10.7-35.4-21.3-53.1-32
	c-11.2-6.7-22.4-13.5-33.6-20.2c-14.7-9-28.1-16.7-41-23.8l-5.2-2.9l0.1,6c0.3,26.1,0.8,52.6,1.2,78.3c0.5,27.5,1,56,1.3,84
	c-23.1,13.4-46.5,27.2-69.2,40.5c-14.1,8.3-28.3,16.6-42.4,24.9c-4.2,2.4-8.4,4.9-12.5,7.3c-6.6,3.9-13.5,8-20.4,11.6l-7,3.7
	C495.8,650.7,543.5,677.2,558.2,686z M438.1,323.6c-34,20.1-69.2,40.8-103.7,61.3l-1.7,1l0,2c0,28.5,0,57,0,85.6
	c0,26.1,0,52.2,0,78.3l0,2l1.8,1c26.5,15.1,53.1,30.2,79.6,45.3c21.2,12.1,42.4,24.2,63.7,36.2l1.7,1l1.7-1
	c15.4-8.7,30.8-17.4,46.1-26.1c31.9-18,64.9-36.7,97.1-55.3l1.8-1v-2c0-25,0-50.1,0-75.1c0-29.6,0-59.2,0-88.9v-2l-1.7-1
	c-39.5-23.4-79.7-47.1-118.6-70.1l-26.3-15.5C479.3,299.2,451.2,315.8,438.1,323.6z M16.2,400.4c0.5,50.9,0.9,102.7,1.3,152.7l0,2.7
	l1.7,1c24.3,13.9,49,28.1,72.8,41.8c19.8,11.4,39.7,22.8,59.5,34.1l5.2,3l0-6c0-14.1,0.1-28.5,0.3-42.4c0.2-16.1,0.3-32.8,0.3-49.1
	c-0.1-9.3,0.1-18.7,0.2-27.8c0.1-10.8,0.3-21.9,0.2-32.9l0-2l-1.7-1c-23.8-13.6-48-27.5-71.4-41c-17.4-10-68.4-38.1-68.4-38.1
	L16.2,400.4z M874.7,433c-23.6,13.6-48,27.7-72.1,41.4l-1.8,1l0,2c0,12.5,0.1,25.1,0.2,37.4c0.2,18.1,0.3,36.8,0.2,55.2
	c0.3,17.3,0.4,36.2,0.5,59.6l0,6l5.2-3c19-10.9,37.9-21.8,56.9-32.6c24.7-14.2,50.3-28.9,75.4-43.3l1.7-1l0-2
	c0.3-45.8,0.8-99.9,1.3-153.3l0.1-5.3C942.5,395,889.9,424.2,874.7,433z M176.4,289.4c-22.7,13.4-45.4,26.8-68,40.1
	c-26,15.4-52,30.7-78,46l-6.1,3.6c0,0,66.7,35.7,89,48.1c18.1,10,36.2,20.1,54.3,30.2l1.8,1l1.7-1.1c52.1-32.2,95.8-59.2,139.7-86.5
	l1.7-1l0-1.9c0-17.5,0.1-35.4,0.2-52.6l0-4.1c0.2-21.6,0.2-43.6,0.2-64.8c0-14.1,0-28.8,0.1-43.2l0-2l-1.8-1
	c-21.2-12.1-42.3-24.3-63.5-36.4c-21-12-70.9-39.6-70.9-39.6l0,5.4c-0.1,26.3-0.1,52.6-0.2,78.9
	C176.5,234.8,176.5,262.3,176.4,289.4z M704.5,167.4c-19,10.9-38,21.7-57,32.6l-1.8,1l0,2c0.1,28.1,0.1,56.5,0.1,83
	c0.2,26.4,0.4,54.4,0.4,81.8v1.9l1.7,1c39.8,24.7,80.3,49.8,119.5,74l21.9,13.6l1.8-1c11.5-6.4,23-12.8,34.5-19.2
	c23-12.8,108.4-59.4,108.4-59.4l-5.7-3.3c-27.9-16.4-56.2-33.1-83.5-49.2c-20.8-12.3-41.7-24.6-62.5-36.9
	c-0.1-26.4-0.1-52.9-0.2-79.3c0-26.9-0.1-53.8-0.2-80.7l0-5.4C781.9,124,723.5,156.5,704.5,167.4z M479.3,274.8
	c25.3,14.9,50.9,30.1,75.7,44.9c20.8,12.4,42.4,25.2,63.6,37.7l5.2,3.1l0.1-6c0.5-27.2,0.9-54.9,1.3-81.7
	c0.3-23.4,0.7-47.5,1.1-71.3l0-2l-1.7-1c-6.7-4.2-13.8-8-20.6-11.7c-4.2-2.3-8.5-4.6-12.7-7l-37.6-20.9
	c-24.3-13.5-48.5-26.9-72.8-40.4l-1.7-0.9l-1.7,0.9c-26,14.4-52.1,28.9-78.1,43.3l-39.9,22.2c-3.2,1.9-6.5,3.6-9.7,5.4
	c-5.3,2.9-10.8,5.8-15.9,9.1l-1.7,1.1l0,2c0.4,23.5,0.8,47.5,1.1,70.6c0.4,27,0.8,54.9,1.3,82.4l0.1,6l5.2-3
	c21.3-12.6,42.9-25.4,63.9-37.9C428.6,304.8,454.1,289.6,479.3,274.8z M632.4,24c-14.8,8.8-29.6,17.7-44.5,26.5
	c-27.9,16.6-56.8,33.8-85.1,50.8l-5.1,3l5.1,3c23.7,13.9,47.4,27.9,71.1,41.9c19.5,11.5,39,23,58.5,34.5l1.8,1l1.8-1.1
	c16.9-10,135.5-80.2,135.5-80.2l-5.1-3c-25.7-15.2-51.8-30.5-77.1-45.3C671.8,45,653.7,34.4,636,24l-1.8-1.1L632.4,24z M322.7,24
	c-17.8,10.4-35.6,20.9-53.4,31.3C244,70,217.9,85.3,192.2,100.5l-5.1,3c0,0,60.6,35.8,87.7,51.8c16,9.5,31.9,18.9,47.9,28.4l1.8,1.1
	l1.8-1c19.5-11.5,39-23,58.5-34.5c23.7-14,47.4-27.9,71.1-41.9l5.1-3l-5.1-3c-28.1-16.8-56.7-33.9-84.4-50.4
	c-15.1-9-30.2-18-45.2-27l-1.8-1.1L322.7,24z"/>
</svg>
